<svg xmlns="http://www.w3.org/2000/svg" viewBox="0 0 512 512" width="512" height="512">
  <rect width="512" height="512" rx="112" fill="#E65100"/>
  <path transform="translate(76,76) scale(15)" fill="#ffffff" fill-rule="evenodd"
    d="M21 5c-1.11-.35-2.33-.5-3.5-.5-1.95 0-4.05.4-5.5 1.5-1.45-1.1-3.55-1.5-5.5-1.5S2.45 4.4 1 5.5v14.65c0 .25.25.5.5.5.1 0 .15-.05.25-.05C3.1 19.9 5.05 19.5 6.5 19.5c1.95 0 4.05.4 5.5 1.5 1.35-.85 3.8-1.5 5.5-1.5 1.65 0 3.35.3 4.75 1.05.1.05.15.05.25.05.25 0 .5-.25.5-.5V5.5c-.6-.45-1.25-.75-2-1zm0 13.5c-1.1-.35-2.3-.5-3.5-.5-1.7 0-4.15.65-5.5 1.5V8c1.35-.85 3.8-1.5 5.5-1.5 1.2 0 2.4.15 3.5.5v11.5z"/>
</svg>
